<svg xmlns="http://www.w3.org/2000/svg" viewBox="0 0 32 32" width="24" height="24" style="fill: #101010;border-color: rgba(0,0,0,0);border-width: bpx;border-style: undefined" filter="none"><path d="M17.778 3.556c6.873 0 12.444 5.572 12.444 12.444s-5.572 12.444-12.444 12.444c-6.873 0-12.444-5.572-12.444-12.444s5.572-12.444 12.444-12.444zM17.778 5.333c-5.891 0-10.667 4.776-10.667 10.667s4.776 10.667 10.667 10.667c5.891 0 10.667-4.776 10.667-10.667s-4.776-10.667-10.667-10.667zM21.659 9.333c0.425 0.245 0.571 0.789 0.325 1.214l-1.483 2.568h1.948c0.491 0 0.889 0.398 0.889 0.889s-0.398 0.889-0.889 0.889h-3.556v1.778h3.556c0.491 0 0.889 0.398 0.889 0.889s-0.398 0.889-0.889 0.889h-3.556v3.556c0 0.491-0.398 0.889-0.889 0.889s-0.889-0.398-0.889-0.889v-3.556h-3.556c-0.491 0-0.889-0.398-0.889-0.889s0.398-0.889 0.889-0.889h3.556v-1.778h-3.556c-0.491 0-0.889-0.398-0.889-0.889s0.398-0.889 0.889-0.889h1.256l-1.483-2.568c-0.243-0.421-0.103-0.958 0.313-1.207l0.013-0.007c0.421-0.243 0.958-0.103 1.207 0.313l0.007 0.013 1.996 3.457h1.579l1.996-3.457c0.245-0.425 0.789-0.571 1.214-0.325zM5.614 8.093c0.44 0.219 0.619 0.752 0.4 1.192-1.028 2.069-1.57 4.352-1.57 6.716 0 1.738 0.293 3.434 0.86 5.037 0.164 0.463-0.079 0.971-0.542 1.134-0.275 0.097-0.567 0.051-0.792-0.1-0.094-0.059-0.173-0.132-0.238-0.217l-0.002-0.002-2.733-3.623c-0.296-0.392-0.218-0.949 0.174-1.245s0.949-0.218 1.245 0.174l0.323 0.429c-0.047-0.475-0.074-1.027-0.074-1.585 0-0.001 0-0.001 0-0.002v0c0-2.639 0.607-5.194 1.756-7.507 0.218-0.44 0.752-0.619 1.192-0.4z"></path></svg>