<svg xmlns="http://www.w3.org/2000/svg" viewBox="0 0 32 32" width="24" height="24" style="fill: #101010;border-color: rgba(0,0,0,0);border-width: bpx;border-style: undefined" filter="none"><path d="M15 8h2v2h-2v-2zM24 17h2v2h-2v-2zM6 17h2v2h-2v-2zM8.155 11.6l1.414-1.414 1.414 1.414-1.414 1.414-1.414-1.414zM20.985 11.57l1.414-1.414 1.414 1.414-1.414 1.414-1.414-1.414z"></path><path d="M16 4c-7.8 0-14 6.2-14 14 0 2.2 0.4 4.2 1.4 6h25.2c0.8-1.8 1.4-3.8 1.4-6 0-7.8-6.2-14-14-14zM27.4 22h-9.4l-2-10-2 10h-9.4c-0.4-1.2-0.6-2.6-0.6-4 0-6.6 5.4-12 12-12s12 5.4 12 12c0 1.4-0.2 2.8-0.6 4z"></path></svg>