<svg xmlns="http://www.w3.org/2000/svg" viewBox="0 0 32 32" width="24" height="24" style="fill: #101010;border-color: rgba(0,0,0,0);border-width: bpx;border-style: undefined" filter="none"><path d="M14.285 9.026c0.514-0.087 1.107-0.137 1.711-0.137 0.001 0 0.003 0 0.004 0h-0c0.467 0 0.927 0.030 1.379 0.088 0.134 0.016 0.267 0.035 0.399 0.056v-5.478h1.778v5.926c0.495 0.175 0.907 0.356 1.303 0.563l-0.055-0.026 2.308-3.447v-3.015h-14.222v3.020l2.285 3.449c0.347-0.182 0.766-0.365 1.199-0.519l0.072-0.022v-5.928h1.778v5.48c0.021-0.003 0.042-0.007 0.063-0.010zM22.314 10.957c2.64 1.942 4.353 5.070 4.353 8.598 0 5.891-4.776 10.667-10.667 10.667s-10.667-4.776-10.667-10.667c0-3.52 1.705-6.642 4.335-8.585l-2.261-3.413c-0.185-0.276-0.296-0.616-0.296-0.982 0 0 0 0 0-0v0-3.020c0-0.982 0.796-1.778 1.778-1.778h14.222c0.982 0 1.778 0.796 1.778 1.778v3.015c0 0 0 0 0 0 0 0.369-0.112 0.711-0.304 0.995l0.004-0.006-2.275 3.397zM21.324 12.437l-0.005 0.008c-0.151-0.118-0.328-0.246-0.509-0.366l-0.033-0.020c-1.078-0.688-2.315-1.151-3.643-1.32-0.365-0.043-0.74-0.064-1.122-0.064-0.484 0-0.956 0.034-1.414 0.103-4.242 0.673-7.486 4.347-7.486 8.779 0 4.909 3.98 8.889 8.889 8.889s8.889-3.98 8.889-8.889c0-2.912-1.401-5.498-3.565-7.119z"></path><path d="M16 17.041l-2.514 2.514 2.514 2.514 2.514-2.514-2.514-2.514zM17.257 15.784l2.514 2.514c0.694 0.694 0.694 1.82 0 2.514l-2.514 2.514c-0.694 0.694-1.82 0.694-2.514 0l-2.514-2.514c-0.694-0.694-0.694-1.82 0-2.514l2.514-2.514c0.694-0.694 1.82-0.694 2.514 0z"></path></svg>