<svg xmlns="http://www.w3.org/2000/svg" viewBox="0 0 32 32" width="29" height="29" style="fill: rgba(2, 108, 193, 1);border-color: rgba(187,187,187,1);border-width: 0px;border-style: solid" filter="none"><path d="M4 6.66c0-1.469 1.191-2.66 2.66-2.66h18.68c1.469 0 2.66 1.191 2.66 2.66v18.68c0 1.469-1.191 2.66-2.66 2.66v0h-18.68c-1.469 0-2.66-1.191-2.66-2.66v0-18.68zM8.476 24h15.32c-1.706-2.431-4.497-4-7.654-4-0.002 0-0.004 0-0.006 0h0c-0.002 0-0.004 0-0.006 0-3.157 0-5.948 1.569-7.634 3.97l-0.020 0.030zM16 17.333c2.577 0 4.667-2.089 4.667-4.667s-2.089-4.667-4.667-4.667v0c-2.577 0-4.667 2.089-4.667 4.667s2.089 4.667 4.667 4.667v0z"></path></svg>