<svg xmlns="http://www.w3.org/2000/svg" viewBox="0 0 32 32" width="24" height="24" style="fill: #101010;border-color: rgba(0,0,0,0);border-width: bpx;border-style: undefined" filter="none"><path d="M16 1.778c7.855 0 14.222 6.367 14.222 14.222s-6.367 14.222-14.222 14.222-14.222-6.367-14.222-14.222 6.367-14.222 14.222-14.222zM16 10.667c-5.999 0-8.889 5.085-8.889 5.333s2.813 5.333 8.889 5.333c6.076 0 8.889-5.084 8.889-5.333s-2.89-5.333-8.889-5.333zM16 12.444c1.964 0 3.556 1.592 3.556 3.556s-1.592 3.556-3.556 3.556c-1.964 0-3.556-1.592-3.556-3.556s1.592-3.556 3.556-3.556zM16 14.222c-0.982 0-1.778 0.796-1.778 1.778s0.796 1.778 1.778 1.778c0.982 0 1.778-0.796 1.778-1.778s-0.796-1.778-1.778-1.778z"></path></svg>