<svg xmlns="http://www.w3.org/2000/svg" viewBox="0 0 32 32" width="27" height="27" style="fill: rgba(80, 85, 89, 1);border-color: rgba(187,187,187,1);border-width: 0px;border-style: solid" filter="none"><path d="M16 25.239l2.604-3.906h9.84v-16h-24.889v16h9.84l2.604 3.906zM17.479 26.226c-0.132 0.197-0.296 0.361-0.487 0.489l-0.006 0.004c-0.817 0.545-1.921 0.324-2.465-0.493l-2.076-3.115h-8.889c-0.982 0-1.778-0.796-1.778-1.778v-16c0-0.982 0.796-1.778 1.778-1.778h24.889c0.982 0 1.778 0.796 1.778 1.778v16c0 0.982-0.796 1.778-1.778 1.778h-8.889l-2.076 3.115z"></path><path d="M9.778 8.889h12.444c0.491 0 0.889 0.398 0.889 0.889s-0.398 0.889-0.889 0.889h-12.444c-0.491 0-0.889-0.398-0.889-0.889s0.398-0.889 0.889-0.889zM9.778 14.222h12.444c0.491 0 0.889 0.398 0.889 0.889s-0.398 0.889-0.889 0.889h-12.444c-0.491 0-0.889-0.398-0.889-0.889s0.398-0.889 0.889-0.889z"></path></svg>