<svg xmlns="http://www.w3.org/2000/svg" viewBox="0 0 32 32" width="30" height="30" style="fill: rgba(0, 0, 0, 1);border-color: rgba(187,187,187,1);border-width: 0px;border-style: solid" filter="none"><path d="M26.667 26.667v-19.556h-3.556v0.889c0 0.491-0.398 0.889-0.889 0.889s-0.889-0.398-0.889-0.889v-0.889h-10.667v0.889c0 0.491-0.398 0.889-0.889 0.889s-0.889-0.398-0.889-0.889v-0.889h-3.556v19.556h21.333zM23.111 5.333h3.556c0.983 0 1.778 0.795 1.778 1.778v19.556c0 0.983-0.795 1.778-1.778 1.778h-21.333c-0.983 0-1.778-0.795-1.778-1.778v-19.556c0-0.983 0.795-1.778 1.778-1.778h3.556v-0.889c0-0.491 0.398-0.889 0.889-0.889s0.889 0.398 0.889 0.889v0.889h10.667v-0.889c0-0.491 0.398-0.889 0.889-0.889s0.889 0.398 0.889 0.889v0.889zM9.778 19.556c-0.491 0-0.889-0.398-0.889-0.889s0.398-0.889 0.889-0.889h12.444c0.491 0 0.889 0.398 0.889 0.889s-0.398 0.889-0.889 0.889h-12.444zM9.778 16c-0.491 0-0.889-0.398-0.889-0.889s0.398-0.889 0.889-0.889h12.444c0.491 0 0.889 0.398 0.889 0.889s-0.398 0.889-0.889 0.889h-12.444zM9.778 23.111c-0.491 0-0.889-0.398-0.889-0.889s0.398-0.889 0.889-0.889h5.333c0.491 0 0.889 0.398 0.889 0.889s-0.398 0.889-0.889 0.889h-5.333z"></path></svg>